PathFileType	4	(X/Y/Z)	D:\TRACE\spot_10-12-23\spot_arm_body_motion_3_8-v60.trc
DataRate	CameraRate	NumFrames	NumMarkers	Units	OrigDataRate	OrigDataStartFrame	OrigNumFrames
100.00	100.00	      21	9	mm	100.00	1	      7000
Frame#	Time	front left toe			Front right toe			aft left toe			aft right toe			Arm			FL body			FR body			AL Body			AR Body			
		X1	Y1	Z1	X2	Y2	Z2	X3	Y3	Z3	X4	Y4	Z4	X5	Y5	Z5	X6	Y6	Z6	X7	Y7	Z7	X8	Y8	Z8	X9	Y9	Z9	

1	0.000	-285.38007	29.53456	-2.11123	203.28946	40.59684	-62.74847	-190.22910	-77.09940	599.79852	280.36911	-71.83070	533.39124	-51.90227	937.17682	-185.67805	-130.35155	642.27960	-118.10014	20.59354	648.24774	-140.41905	-4.27545	487.51193	742.70331	144.95309	486.58621	723.20227	
2	0.010	-285.38010	29.59210	-2.14868	203.29050	40.58397	-62.72770	-190.22383	-77.08595	599.81458	280.41608	-71.76413	533.43890	-52.11124	937.58435	-186.31746	-130.29164	642.39349	-117.92255	20.78382	648.21106	-140.32889	-4.26922	487.46912	742.75098	145.03763	486.54477	723.29388	
3	0.020	-285.38135	29.53559	-2.13929	203.24043	40.66086	-62.71849	-190.25395	-77.08340	599.83368	280.38574	-71.73840	533.42761	-52.40825	938.10803	-186.92239	-130.19072	642.42480	-117.82868	20.79574	648.24103	-140.25677	-4.28018	487.42761	742.88898	144.93591	486.50241	723.34222	
4	0.030	-285.41489	29.53452	-2.17519	203.32553	40.61239	-62.68682	-190.23679	-77.14107	599.83740	280.41833	-71.75545	533.49335	-52.59130	938.35986	-187.53175	-130.13474	642.44562	-117.71927	20.81739	648.19324	-139.77432	-4.33997	487.40396	742.93903	144.94594	486.52734	723.40295	
5	0.040	-285.40463	29.49469	-2.18126	203.18790	40.54541	-62.75113	-190.23572	-77.20453	599.85193	280.35330	-71.82076	533.42065	-52.80635	938.80353	-188.21614	-130.08220	642.46252	-117.64793	20.78986	648.24829	-139.71265	-4.43222	487.36401	743.02979	144.77882	486.47107	723.47809	
6	0.050	-285.38379	29.49875	-2.16994	203.29689	40.56570	-62.69843	-190.22595	-77.21225	599.83521	280.36404	-71.81194	533.45477	-52.85933	939.18744	-188.83258	-130.03630	642.51135	-117.56798	20.80619	648.40875	-139.55577	-4.05275	487.19318	743.67780	144.76816	486.42896	723.51392	
7	0.060	-285.41617	29.50666	-2.17985	203.25230	40.58195	-62.69185	-190.23524	-77.18902	599.84985	280.33334	-71.80016	533.41492	-53.01177	939.50543	-189.28714	-130.05588	642.59332	-117.47559	20.80221	648.69733	-139.95610	-4.00396	487.19333	743.79382	144.71742	486.41116	723.62354	
8	0.070	-285.43008	29.51522	-2.18657	203.27023	40.61514	-62.74143	-190.24359	-77.13311	599.85638	280.42935	-71.74903	533.47748	-53.32808	940.01172	-189.97224	-130.09981	642.83862	-117.37398	20.78932	648.73022	-139.38448	-3.97278	487.21307	743.90173	144.88217	486.36746	723.61304	
9	0.080	-285.44244	29.56711	-2.17562	203.22771	40.55548	-62.77142	-190.25412	-77.16051	599.85193	280.38400	-71.76385	533.45801	-53.42595	940.45862	-190.29643	-130.10585	643.06873	-117.29346	20.86001	648.93640	-139.31877	-3.99588	487.13812	743.90936	144.78171	486.31683	723.70477	
10	0.090	-285.42084	29.52361	-2.16312	203.35367	40.61551	-62.74649	-190.23753	-77.20043	599.85370	280.40787	-71.79079	533.44476	-53.56128	940.94000	-190.78889	-130.04187	643.19904	-117.18797	20.81218	649.13531	-139.26503	-3.95119	487.08923	744.01648	144.92336	486.25800	723.73450	
11	0.100	-285.42419	29.48006	-2.19280	203.28400	40.57605	-62.74749	-190.25092	-77.19828	599.81592	280.36993	-71.82474	533.47351	-53.76951	941.43707	-191.31517	-130.01303	643.37469	-117.09501	20.93247	649.26294	-139.17686	-3.95696	487.05685	744.04999	145.13016	486.07715	723.47406	
12	0.110	-285.44772	29.47923	-2.22153	203.26666	40.64965	-62.71406	-190.23286	-77.19833	599.82117	280.37292	-71.84791	533.45776	-53.94465	941.81604	-191.89857	-129.96559	643.60474	-116.95930	20.95130	649.43005	-139.07707	-3.95099	487.02954	744.03778	144.95740	486.21878	723.88049	
13	0.120	-285.43167	29.48740	-2.21992	203.38310	40.62906	-62.73062	-190.23878	-77.17171	599.83655	280.38828	-71.82059	533.45959	-54.11764	942.21967	-192.27335	-129.99913	643.93573	-116.86190	21.01623	649.71948	-138.94128	-3.90034	487.04709	744.11700	145.28482	485.98312	723.52386	
14	0.130	-285.43857	29.54589	-2.24715	203.24214	40.67935	-62.74364	-190.21083	-77.16254	599.83942	280.40790	-71.78607	533.48523	-54.35627	942.76208	-192.87195	-129.94856	644.19531	-116.86143	21.04863	650.07080	-138.83359	-3.97973	486.98788	744.05518	144.97240	486.06467	723.86310	
15	0.140	-285.45694	29.55777	-2.24630	203.22908	40.64849	-62.74086	-190.22198	-77.18903	599.87604	280.40030	-71.79404	533.49042	-54.61936	943.17224	-193.45923	-129.99121	644.47229	-116.81402	21.03562	650.32910	-138.72986	-4.04707	486.95740	744.06171	144.94052	486.02820	723.93408	
16	0.150	-285.44199	29.51184	-2.25065	203.26218	40.61428	-62.78354	-190.20862	-77.20322	599.86603	280.40320	-71.86824	533.48785	-54.83382	943.85358	-193.97070	-130.00960	644.68469	-116.72485	20.94546	650.73602	-139.15799	-4.11725	487.01221	744.01770	144.97044	485.89517	723.87878	
17	0.160	-285.43698	29.45423	-2.21547	203.24124	40.62796	-62.76497	-190.22836	-77.18790	599.86914	280.33603	-71.92150	533.46552	-54.72823	944.09589	-194.45038	-130.02588	644.92322	-116.55418	21.12043	650.69244	-138.58905	-4.32968	486.97696	744.00238	144.78078	486.04660	723.78656	
18	0.170	-285.44983	29.49539	-2.28528	203.32437	40.58152	-62.81091	-190.21063	-77.18907	599.86139	280.42667	-71.86691	533.43805	-54.81408	944.44098	-195.26080	-129.91908	645.09631	-116.46146	21.18949	650.92279	-138.50256	-4.44784	486.95447	744.03717	144.82115	485.97501	723.79791	
19	0.180	-285.43671	29.54714	-2.28414	203.25401	40.64265	-62.85231	-190.20869	-77.13391	599.84601	280.40958	-71.85056	533.50171	-55.05774	945.00958	-195.90930	-129.96252	645.36920	-116.38766	21.33687	651.22565	-138.21777	-4.41960	486.92706	744.14117	144.83591	485.91556	723.84521	
20	0.190	-285.44482	29.58562	-2.25778	203.27007	40.65375	-62.77226	-190.22961	-77.14406	599.89136	280.43961	-71.82976	533.51361	-55.14002	945.48956	-196.38792	-129.99278	645.58398	-116.31447	21.45644	651.43182	-138.19312	-4.41803	486.86465	744.20135	144.80931	485.85745	723.92651	
21	0.200	-285.45541	29.55042	-2.28086	203.30098	40.64405	-62.77571	-190.20325	-77.15562	599.88855	280.44672	-71.84218	533.51678	-55.15465	945.93964	-197.02412	-129.93065	645.73730	-116.25716	21.41798	651.79187	-138.38715	-4.42478	486.79892	744.21753	144.75560	485.76154	723.97101	
